# xmcd
#
# Track frame offsets: 
#        150
#        12645
#        22836
#        34461
#        46503
#        58529
#        71873
#        85578
#        98688
#        114310
#        127164
#        142091
#        155733
#        169277
#        182461
#        196712
#        210159
#        223652
#        237448
#        251457
#        263548
#        275870
#        288358
#        302537
#        317368
#
# Disc length: 4399 seconds
#
# Revision: 1
# Processed by: cddbd v1.5.1PL0 Copyright (c) Steve Scherf et al.
# Submitted via: ExactAudioCopy v0.95a5
#
DISCID=5e112d19
DTITLE=Various Artist - Blues and Jazz Obscurities 1923-1931
DYEAR=1996
DGENRE=Blues
TTITLE0=Sammie Lewis and Mandy Randolph - Crazy Over Daddy
TTITLE1=Sammie Lewis and Mandy Randolph - Cootie Crawl
TTITLE2=Sammie Lewis and Mandy Randolph - I Got Another Lovin' Daddy
TTITLE3=Sammie Lewis and Mandy Randolph - Whoa Tillie! Take Your Time
TTITLE4=Sammie Lewis and Mandy Randolph - Breaking a Leg
TTITLE5=Sammie Lewis and Mandy Randolph - Indiana Lou
TTITLE6=Hezekiah and Dorothy Jenkins - Hen Pecked Man
TTITLE7=Hezekiah and Dorothy Jenkins - Mouth Organ Blues
TTITLE8=Hezekiah and Dorothy Jenkins - Sister, It's Too Bad
TTITLE9=Hezekiah and Dorothy Jenkins - Fare Thee Well
TTITLE10=Hezekiah and Dorothy Jenkins - The Panic Is On
TTITLE11=Hezekiah and Dorothy Jenkins - Shout You Cats
TTITLE12=Margaret Whitmire and Arnold Wiley - 'Taint a Cow in Texas
TTITLE13=Margaret Whitmire and Arnold Wiley - That Thing's Done Been Put
TTITLE13=on Me
TTITLE14=Arnold and Irene Wiley - The Dixie Drug Store Down on Missouri 
TTITLE14=Street
TTITLE15=Arnold and Irene Wiley - You'd Better Not Go to 35th and State 
TTITLE15=No More!
TTITLE16=Arnold and Irene Wiley - Windy City
TTITLE17=Arnold and Irene Wiley - Arnold Wiley Rag
TTITLE18=Arnold and Irene Wiley - Jumping Blues
TTITLE19=Arnold and Irene Wiley - Spider in Your Dumpling
TTITLE20=Arnold and Irene Wiley - Rootin' Bo' Hog Blues
TTITLE21=Arnold and Irene Wiley - Irene's Baker Shop Blues
TTITLE22=Arnold and Irene Wiley - Jumpin' Judy Blues
TTITLE23=Arnold and Irene Wiley - This Sweet Reedie Brown
TTITLE24=William Walker - I'll Remember You
EXTD=Track 1-6 Sammie Lewis and Mandy Randolph\nTrack 7-12 Hezekiah and Do
EXTD=rothy Jenkins\nTrack 13-14 Margaret Whitmire and Arnold Wiley\nTrac
EXTD=k 15-24 Arnold and Irene Wiley \nTrack 25 William Walker\n
EXTT0=
EXTT1=
EXTT2=
EXTT3=
EXTT4=
EXTT5=
EXTT6=
EXTT7=
EXTT8=
EXTT9=
EXTT10=
EXTT11=
EXTT12=
EXTT13=
EXTT14=
EXTT15=
EXTT16=
EXTT17=
EXTT18=
EXTT19=
EXTT20=
EXTT21=
EXTT22=
EXTT23=
EXTT24=
PLAYORDER=
